<svg width="120" height="21" viewBox="0 0 120 21" fill="none" xmlns="http://www.w3.org/2000/svg">
<g clip-path="url(#clip0_6300_4513)">
<path d="M3.06965 12.1897C3.06965 16.0576 2.92345 18.4522 2.83582 19.1275C2.80653 19.68 2.5727 19.987 1.69561 20.0485L0 20.1713V20.5703C0.73089 20.5703 2.7189 20.4475 4.64846 20.4475C6.57801 20.4475 8.449 20.5703 10.3786 20.5703C12.8051 20.5703 14.6762 20.202 16.1379 19.588C17.5413 18.9985 18.6421 18.186 19.5066 17.2085C21.2934 15.1881 21.9558 12.4869 21.9558 9.85662C21.9558 5.95789 20.6402 2.94951 17.8921 1.44531C16.5181 0.708552 14.9101 0.248047 10.9634 0.248047C8.82914 0.248047 6.69504 0.370841 4.99932 0.370841C3.39134 0.370841 0.935663 0.248047 0.204772 0.248047L0.117029 0.647098L1.90038 0.831231C2.60199 0.892571 2.89439 1.01536 2.95285 1.75224C3.01131 2.55046 3.06988 3.96253 3.06988 7.15516V12.1897H3.06965ZM7.19176 7.55421C7.19176 3.16442 7.25022 2.05928 7.30868 1.62945C7.39642 1.07693 7.60108 0.769891 10.1445 0.769891C12.6879 0.769891 14.4128 1.38386 15.5823 2.67314C16.7518 3.96241 17.4826 6.1727 17.4826 9.9793C17.4826 13.7859 16.6639 16.3031 15.6115 17.7152C14.559 19.0966 13.0972 20.0789 9.53052 20.0789C7.95182 20.0789 7.39631 19.8027 7.33785 19.3728C7.22093 18.6361 7.19165 17.316 7.19165 12.3429V7.55398L7.19176 7.55421Z" fill="#232323"/>
<path d="M80.753 12.1309C80.753 15.9887 80.6072 18.3768 80.5197 19.0504C80.4905 19.6016 80.2573 19.9077 79.3826 19.9689L77.6914 20.0914V20.4894C78.4204 20.4894 80.4031 20.367 82.3276 20.367C84.252 20.367 86.1181 20.4894 88.0426 20.4894C90.4627 20.4894 92.3289 20.1221 93.7868 19.5097C98.1606 17.6727 99.5893 13.6618 99.5893 9.80397C99.5893 5.94617 98.2771 2.91498 95.5362 1.41478C94.1658 0.679954 92.5621 0.220703 88.6257 0.220703C86.4971 0.220703 84.3686 0.343155 82.6774 0.343155C81.0737 0.343155 78.6243 0.220703 77.8955 0.220703L77.808 0.618728L79.5867 0.802405C80.2864 0.863631 80.578 0.986083 80.6364 1.72091C80.6947 2.51696 80.7531 3.92538 80.7531 7.10958V12.1309H80.753ZM84.8644 7.50771C84.8644 3.12944 84.9226 2.02715 84.9809 1.59857C85.0683 1.04742 85.2725 0.741293 87.8092 0.741293C90.3459 0.741293 92.0664 1.35367 93.2327 2.63964C94.399 3.92561 95.128 6.12996 95.128 9.92653C95.128 13.7231 94.3116 16.2337 93.262 17.6421C92.2122 19.0199 90.7543 19.9997 87.197 19.9997C85.6225 19.9997 85.0683 19.7241 85.0101 19.2956C84.8934 18.5607 84.8643 17.2442 84.8643 12.2841V7.50783L84.8644 7.50771Z" fill="#232323"/>
<path d="M101.277 0.646933L102.797 0.769727C103.645 0.861851 103.966 1.07665 103.996 1.69074C104.083 2.61175 104.142 4.3922 104.142 7.27779V12.7421C104.142 15.1365 104.083 17.3775 103.996 18.6668C103.937 19.7106 103.586 19.9254 102.885 19.9869L101.014 20.171L100.984 20.5701C102.154 20.5701 104.551 20.4473 106.451 20.4473H110.164C113.994 20.4473 116.713 20.5087 118.175 20.6007C118.35 19.6797 119.14 15.0443 119.14 14.3997L118.789 14.3383C118.379 15.9652 117.415 18.0527 116.362 18.851C115.251 19.7412 114.169 19.8946 111.071 19.8946C108.702 19.8946 108.41 19.6491 108.381 19.0351C108.293 17.8685 108.264 15.2591 108.264 13.141V10.3782C108.644 10.3167 109.755 10.3167 110.31 10.3167C113.848 10.3167 114.374 11.3298 114.667 14.0619L115.047 14.0926C114.842 12.0357 114.93 8.84321 115.163 6.47935H114.813C114.374 8.96589 113.702 9.73332 110.427 9.73332C109.96 9.73332 108.644 9.73332 108.264 9.70265V6.5408C108.264 4.36119 108.381 2.42727 108.439 1.38347C108.439 1.04576 108.586 0.922963 109.024 0.922963H110.866C114.754 0.922963 115.163 1.16855 115.836 2.45783C116.362 3.5323 116.713 4.82158 116.859 5.92672L117.239 5.83459C117.181 4.3304 117.181 1.07631 117.356 0.00195312C116.713 0.216871 114.813 0.370334 112.357 0.370334H106.51C104.756 0.370334 102.095 0.24754 101.277 0.24754V0.646933H101.277Z" fill="#232323"/>
<path d="M38.4798 20.9194C37.7536 20.849 37.1011 20.7321 36.4849 20.5623C36.1473 20.4697 35.8152 20.3577 35.4904 20.2271C35.1564 20.0926 34.8316 19.9361 34.518 19.7589C34.192 19.5741 33.8796 19.3662 33.5834 19.1365C33.2701 18.8929 32.9753 18.6263 32.7017 18.3388C31.5085 17.0855 30.0859 14.7136 30.0859 10.5284C30.0859 9.26607 30.2344 8.06938 30.527 6.9721C30.9467 5.3987 31.6601 4.04375 32.6472 2.94477C32.9197 2.64126 33.213 2.35714 33.5251 2.09456C33.818 1.84886 34.1275 1.62379 34.4515 1.42096C35.0456 1.04973 35.7009 0.748847 36.3995 0.526861C37.0199 0.329388 37.6714 0.191772 38.3911 0.105577C38.984 0.0344324 39.6173 0 40.3274 0C41.6253 0 42.7375 0.0936059 43.7276 0.286062C44.357 0.408514 44.9415 0.573151 45.4645 0.775527C46.0529 1.0031 46.5813 1.2854 47.035 1.6141C47.358 1.84669 47.66 2.1071 47.9375 2.39248C48.2456 2.71058 48.5172 3.06209 48.7472 3.44062C49.0045 3.8676 49.2068 4.32537 49.3492 4.8032C49.5092 5.33679 49.6035 5.91542 49.6292 6.52323L49.6309 6.56553H47.1387L47.136 6.52813C47.0879 5.88908 46.9464 5.33485 46.7036 4.8341C46.5556 4.52911 46.369 4.24442 46.1488 3.98675C45.9039 3.69989 45.6096 3.43651 45.2735 3.20369C44.7166 2.8181 43.9804 2.52269 43.0851 2.32498C42.6518 2.23069 42.2133 2.16217 41.7721 2.11976C41.3313 2.07632 40.8724 2.05443 40.4081 2.05443C39.9327 2.05238 39.4576 2.08464 38.9869 2.15088C38.4663 2.22591 37.9686 2.34665 37.5072 2.5106C36.993 2.692 36.5032 2.9361 36.0487 3.23756C35.5445 3.57527 35.0878 3.97888 34.6904 4.43767C34.1308 5.07718 33.6794 5.84017 33.3485 6.70576C32.9093 7.85446 32.6867 9.17863 32.6867 10.6413C32.6867 13.1882 33.3507 15.3513 34.5561 16.7321C35.3526 17.657 36.3105 18.2699 37.4846 18.6057C38.5305 18.9049 39.611 18.9462 40.6228 18.9462C41.3382 18.9462 42.1818 18.9236 43.0153 18.7566C43.442 18.6712 43.8402 18.5518 44.1994 18.4021C44.5916 18.2397 44.9612 18.0273 45.2989 17.7698C45.7503 17.4193 46.1368 16.9922 46.4407 16.5079C46.9035 15.7727 47.1736 14.9171 47.2433 13.9651L47.246 13.9278H49.7386L49.7366 13.9702C49.6503 15.7815 49.0145 17.3117 47.7927 18.648C47.3507 19.1263 46.8979 19.5089 46.4081 19.8174C45.9208 20.1244 45.3942 20.3598 44.7983 20.5374C44.2272 20.7077 43.5845 20.8263 42.8334 20.9006C42.1509 20.968 41.3488 21.0008 40.3811 21.0008C39.6555 21.0008 39.0514 20.9747 38.4796 20.9195L38.4798 20.9194Z" fill="#232323"/>
<path d="M68.4988 0.285137C65.7486 0.044794 63.4172 0.629119 61.5933 1.68216C57.8543 3.84091 54.7097 8.08236 54.3237 12.5043C53.8563 17.8588 57.3054 20.3426 61.9177 20.7457C64.8971 21.0061 67.9967 20.5495 70.7723 18.1854C73.4487 15.9642 75.7646 12.2868 76.064 8.85755C76.5131 3.71367 73.5694 0.728425 68.5275 0.287759L68.4989 0.285251L68.4988 0.285137ZM68.7406 0.821575C71.4335 1.0569 72.4999 3.05968 72.2503 5.91745C71.8985 9.94833 69.1332 15.4657 66.4302 18.3212C64.9394 19.858 63.4492 20.3946 61.7304 20.2444C59.0948 20.0141 57.9319 18.1241 58.2076 14.9655C58.5072 11.2029 61.5204 5.16154 64.2308 2.54924C65.5861 1.24309 67.1076 0.678943 68.7118 0.819067L68.7404 0.821575H68.7406Z" fill="#232323"/>
<path d="M27.4521 17.7656H24.5977V20.6216H27.4521V17.7656Z" fill="#232323"/>
</g>
<defs>
<clipPath id="clip0_6300_4513">
<rect width="119.138" height="21.0007" fill="white"/>
</clipPath>
</defs>
</svg>
